<?xml version="1.0" encoding="UTF-8" standalone="no"?>
<svg
   version="1.0"
   width="768.000000pt"
   height="767.000000pt"
   viewBox="0 0 768.000000 767.000000"
   preserveAspectRatio="xMidYMid meet"
   id="svg56"
   sodipodi:docname="6dd72fa9-1014-414a-939d-a5d2bfbcb074.svg"
   xmlns:inkscape="http://www.inkscape.org/namespaces/inkscape"
   xmlns:sodipodi="http://sodipodi.sourceforge.net/DTD/sodipodi-0.dtd"
   xmlns="http://www.w3.org/2000/svg"
   xmlns:svg="http://www.w3.org/2000/svg">
  <defs
     id="defs56" />
  <sodipodi:namedview
     id="namedview56"
     pagecolor="#ffffff"
     bordercolor="#000000"
     borderopacity="0.25"
     inkscape:showpageshadow="2"
     inkscape:pageopacity="0.0"
     inkscape:pagecheckerboard="0"
     inkscape:deskcolor="#d1d1d1"
     inkscape:document-units="pt" />
  <g
     transform="translate(0.000000,767.000000) scale(0.100000,-0.100000)"
     fill="#000000"
     stroke="none"
     id="g56">
    <path
       d="M2304 6114 c-17 -8 -41 -32 -52 -53 -21 -36 -22 -52 -22 -240 l0 -201 -415 0 -415 0 -15 -24 c-13 -19 -14 -29 -5 -45 11 -21 14 -21 615 -21 l605 0 0 -1029 0 -1029 -31 -12 c-16 -7 -42 -29 -57 -48 -27 -35 -27 -36 -30 -236 -2 -110 -1 -209 2 -221 9 -34 48 -45 165 -45 95 0 112 3 135 21 l27 21 -3 212 -3 213 -27 35 c-15 19 -41 41 -57 48 l-31 12 0 914 0 914 491 0 c319 0 497 4 510 10 21 12 25 50 7 68 -9 9 -136 12 -510 12 l-498 0 0 70 0 70 550 0 550 0 0 -1030 c0 -678 -3 -1030 -10 -1030 -22 0 -90 -74 -100 -108 -5 -21 -10 -119 -10 -220 0 -181 0 -183 25 -207 23 -24 30 -25 145 -25 115 0 122 1 145 25 25 24 25 26 25 207 0 101 -5 199 -10 220 -10 34 -78 108 -100 108 -7 0 -10 313 -10 915 l0 915 494 0 c436 0 496 2 510 16 19 18 21 45 4 62 -9 9 -136 12 -510 12 l-498 0 0 70 0 70 550 0 550 0 0 -1029 0 -1029 -31 -12 c-16 -7 -42 -29 -57 -48 l-27 -35 -3 -213 -3 -212 27 -21 c24 -19 40 -21 139 -21 99 0 115 2 139 21 l27 21 -3 212 -3 213 -27 35 c-15 19 -41 41 -57 48 l-31 12 0 914 0 914 210 0 210 0 0 -1531 c0 -1030 3 -1537 10 -1550 19 -35 64 -49 155 -49 l85 0 0 -209 0 -209 30 -57 c17 -31 30 -59 30 -61 0 -2 -73 -4 -163 -4 -168 0 -187 -4 -187 -41 0 -10 7 -25 16 -33 14 -14 74 -16 518 -16 475 0 504 1 519 18 10 10 17 25 17 33 0 33 -23 39 -157 39 -73 0 -133 3 -133 6 0 3 8 18 18 32 47 68 47 73 47 542 0 506 -1 511 -72 590 -61 68 -120 94 -208 94 -83 0 -153 -31 -205 -90 -65 -74 -70 -96 -70 -326 l0 -208 -80 0 -80 0 0 1515 0 1515 345 0 345 0 15 24 c13 19 14 29 5 45 -11 21 -16 21 -613 23 l-602 3 -3 68 -3 67 605 0 c602 0 605 0 616 21 9 16 8 26 -5 45 l-15 24 -600 0 -600 0 0 201 c0 188 -1 204 -22 240 -32 58 -65 69 -210 69 -138 0 -171 -11 -208 -72 -18 -30 -20 -51 -20 -235 l0 -203 -364 0 -365 0 -3 208 c-3 230 -7 243 -71 282 -27 17 -51 20 -162 20 -111 0 -135 -3 -162 -20 -54 -33 -58 -47 -63 -275 l-5 -210 -367 -3 -367 -2 -3 212 c-3 236 -7 250 -75 283 -44 21 -265 21 -309 -1z m278 -91 c16 -14 18 -35 18 -210 l0 -193 -140 0 -140 0 0 194 c0 164 3 197 16 210 23 24 220 23 246 -1z m1196 5 c9 -9 12 -69 12 -210 l0 -198 -135 0 -135 0 0 198 c0 141 3 201 12 210 8 8 50 12 123 12 73 0 115 -4 123 -12z m1194 -5 c16 -14 18 -35 18 -210 l0 -193 -140 0 -140 0 0 192 c0 240 -7 228 138 228 84 0 109 -3 124 -17z m-2269 -2665 c15 -17 17 -43 17 -189 l0 -169 -75 0 -75 0 0 173 c0 153 2 176 18 189 37 33 85 32 115 -4z m1188 3 l30 -30 -3 -163 -3 -163 -75 0 -75 0 -3 163 -3 163 30 30 c16 16 39 29 51 29 12 0 35 -13 51 -29z m1202 -3 c15 -17 17 -43 17 -189 l0 -169 -75 0 -75 0 0 166 c0 98 4 173 11 185 22 42 89 46 122 7z m1015 -572 c36 -19 78 -65 91 -99 17 -45 15 -899 -3 -940 -17 -43 -76 -93 -123 -106 -47 -13 -49 -13 -95 -1 -79 22 -137 102 -138 189 l0 45 33 -32 c34 -33 65 -40 85 -20 23 23 11 51 -53 117 l-65 68 0 86 c0 48 2 87 5 87 3 0 16 -9 28 -21 37 -35 52 -39 75 -23 35 24 26 50 -43 116 l-65 63 0 94 0 93 35 -31 c40 -35 57 -38 79 -15 27 26 18 46 -50 115 l-66 67 12 36 c15 47 56 95 95 112 40 18 129 18 163 0z"
       id="path1" />
    <path
       d="M1380 5369 c-9 -16 -8 -26 5 -45 l15 -24 345 0 345 0 0 -1515 0 -1515 -80 0 -80 0 0 208 c0 230 -5 252 -70 326 -54 61 -122 91 -205 90 -41 0 -85 -7 -107 -17 -53 -22 -123 -91 -150 -145 -23 -47 -23 -51 -26 -481 -3 -462 0 -508 43 -573 14 -21 25 -40 25 -43 0 -3 -60 -5 -133 -5 -136 0 -157 -5 -157 -40 0 -9 8 -24 18 -33 17 -16 174 -17 2055 -17 2016 0 2037 0 2057 20 15 15 17 25 11 42 l-8 23 -1707 3 c-938 1 -1706 3 -1706 5 0 1 14 29 30 61 l30 59 0 207 0 208 101 4 c96 3 102 4 125 31 l24 28 0 1535 0 1534 154 0 c163 0 186 6 186 49 0 41 -2 41 -577 41 -548 0 -552 0 -563 -21z m358 -2583 c37 -19 68 -55 87 -98 13 -32 15 -102 15 -470 0 -481 -1 -483 -69 -541 -28 -23 -86 -47 -116 -47 -32 0 -90 25 -122 53 -44 39 -63 82 -63 144 l0 47 33 -32 c37 -36 71 -41 87 -13 17 32 13 40 -55 110 l-65 68 0 87 0 88 35 -31 c20 -17 40 -31 45 -31 14 0 50 37 50 51 0 6 -29 41 -65 78 l-65 68 0 92 0 93 35 -31 c20 -17 41 -31 47 -31 17 0 48 31 48 48 0 7 -30 45 -66 82 -60 63 -65 71 -59 100 9 39 60 99 100 116 40 18 129 17 163 0z"
       id="path2" />
    <path
       d="M2492 2778 c-26 -26 -7 -78 28 -78 19 0 50 30 50 48 0 32 -54 54 -78 30z"
       id="path3" />
    <path
       d="M2612 2778 c-36 -36 7 -91 54 -69 42 19 26 81 -21 81 -12 0 -26 -5 -33 -12z"
       id="path4" />
    <path
       d="M2730 2770 c-15 -29 -3 -59 26 -66 30 -8 54 11 54 40 0 46 -59 64 -80 26z"
       id="path5" />
    <path
       d="M3680 2770 c-14 -26 -4 -57 20 -65 44 -14 80 41 48 73 -19 19 -56 14 -68 -8z"
       id="path6" />
    <path
       d="M3804 2769 c-20 -22 -13 -43 19 -63 19 -12 43 -1 61 27 12 19 -17 57 -44 57 -9 0 -25 -9 -36 -21z"
       id="path7" />
    <path
       d="M3932 2778 c-17 -17 -15 -53 3 -68 20 -17 62 -5 70 20 14 44 -41 80 -73 48z"
       id="path8" />
    <path
       d="M4882 2778 c-17 -17 -15 -53 3 -68 20 -17 62 -5 70 20 14 44 -41 80 -73 48z"
       id="path9" />
    <path
       d="M5002 2778 c-36 -36 7 -91 54 -69 42 19 26 81 -21 81 -12 0 -26 -5 -33 -12z"
       id="path10" />
    <path
       d="M5126 2774 c-21 -20 -20 -37 2 -57 33 -30 72 -15 72 28 0 42 -44 59 -74 29z"
       id="path11" />
    <path
       d="M2442 2598 c-32 -32 4 -87 48 -73 25 8 37 50 20 70 -15 18 -51 20 -68 3z"
       id="path12" />
    <path
       d="M2616 2594 c-22 -22 -20 -50 6 -68 19 -13 25 -14 43 -2 26 17 31 49 10 70 -21 20 -39 20 -59 0z"
       id="path13" />
    <path
       d="M2782 2598 c-32 -32 4 -87 48 -73 25 8 37 50 20 70 -15 18 -51 20 -68 3z"
       id="path14" />
    <path
       d="M3643 2603 c-7 -2 -13 -17 -13 -32 0 -49 42 -68 74 -32 13 14 14 24 7 45 -10 25 -36 33 -68 19z"
       id="path15" />
    <path
       d="M3822 2603 c-22 -9 -34 -41 -22 -63 23 -44 101 -12 84 35 -5 13 -36 37 -46 34 -2 0 -9 -3 -16 -6z"
       id="path16" />
    <path
       d="M3976 2595 c-21 -21 -20 -38 2 -58 37 -34 76 -11 70 40 -2 22 -9 29 -29 31 -15 2 -34 -4 -43 -13z"
       id="path17" />
    <path
       d="M4830 2595 c-31 -38 27 -96 65 -65 18 15 20 51 3 68 -17 17 -53 15 -68 -3z"
       id="path18" />
    <path
       d="M5006 2594 c-30 -30 -13 -74 29 -74 44 0 63 60 26 80 -27 14 -37 13 -55 -6z"
       id="path19" />
    <path
       d="M5170 2595 c-17 -20 -5 -62 20 -70 44 -14 80 41 48 73 -17 17 -53 15 -68 -3z"
       id="path20" />
    <path
       d="M2388 2406 c-9 -22 -8 -29 7 -46 35 -38 79 -16 73 37 -2 23 -8 29 -35 31 -27 3 -35 -1 -45 -22z"
       id="path21" />
    <path
       d="M2820 2409 c-9 -16 -8 -26 5 -45 19 -29 46 -31 70 -4 15 17 16 24 7 45 -15 32 -66 35 -82 4z"
       id="path22" />
    <path
       d="M3592 2418 c-32 -32 4 -87 48 -73 25 8 37 50 20 70 -15 18 -51 20 -68 3z"
       id="path23" />
    <path
       d="M4022 2418 c-36 -36 7 -91 54 -69 42 19 26 81 -21 81 -12 0 -26 -5 -33 -12z"
       id="path24" />
    <path
       d="M4778 2405 c-9 -21 -8 -28 7 -45 24 -27 51 -25 70 4 23 34 5 66 -36 66 -22 0 -32 -6 -41 -25z"
       id="path25" />
    <path
       d="M5210 2410 c-25 -46 36 -88 73 -51 18 17 19 24 9 46 -15 32 -66 35 -82 5z"
       id="path26" />
    <path
       d="M2612 2408 c-28 -28 -7 -78 33 -78 27 0 45 18 45 45 0 27 -18 45 -45 45 -12 0 -26 -5 -33 -12z"
       id="path27" />
    <path
       d="M3806 2404 c-21 -20 -20 -37 2 -57 24 -22 45 -21 65 1 21 23 21 36 1 56 -20 20 -48 20 -68 0z"
       id="path28" />
    <path
       d="M5002 2408 c-28 -28 -7 -78 33 -78 27 0 45 18 45 45 0 27 -18 45 -45 45 -12 0 -26 -5 -33 -12z"
       id="path29" />
    <path
       d="M3551 2244 c-26 -19 -27 -46 -1 -69 17 -15 24 -16 46 -7 20 10 25 18 22 43 -4 39 -35 55 -67 33z"
       id="path30" />
    <path
       d="M4753 2249 c-31 -11 -32 -64 -2 -79 28 -15 72 12 67 42 -4 29 -38 48 -65 37z"
       id="path31" />
    <path
       d="M2347 2243 c-16 -15 -6 -63 14 -73 41 -23 90 35 57 68 -13 13 -60 16 -71 5z"
       id="path32" />
    <path
       d="M2872 2238 c-18 -18 -15 -42 8 -63 17 -15 24 -16 46 -7 21 10 25 18 22 45 -3 27 -7 32 -33 35 -17 2 -36 -3 -43 -10z"
       id="path33" />
    <path
       d="M4067 2243 c-16 -15 -6 -63 14 -73 41 -23 90 35 57 68 -13 13 -60 16 -71 5z"
       id="path34" />
    <path
       d="M5262 2238 c-19 -19 -14 -46 12 -63 36 -24 68 -5 64 38 -3 27 -7 32 -33 35 -17 2 -36 -3 -43 -10z"
       id="path35" />
    <path
       d="M2616 2224 c-22 -22 -20 -50 6 -68 19 -13 25 -14 43 -2 26 17 31 49 10 70 -21 20 -39 20 -59 0z"
       id="path36" />
    <path
       d="M3810 2220 c-25 -25 -25 -35 -1 -59 23 -23 57 -18 71 10 12 22 4 46 -21 59 -24 13 -26 13 -49 -10z"
       id="path37" />
    <path
       d="M5006 2224 c-22 -22 -20 -50 6 -68 19 -13 25 -14 43 -2 26 17 31 49 10 70 -21 20 -39 20 -59 0z"
       id="path38" />
    <path
       d="M2312 2064 c-38 -26 -22 -74 24 -74 45 0 58 50 19 76 -18 12 -24 11 -43 -2z"
       id="path39" />
    <path
       d="M2938 2073 c-10 -3 -21 -16 -25 -30 -4 -20 -1 -31 17 -45 20 -16 25 -17 44 -5 41 28 12 91 -36 80z"
       id="path40" />
    <path
       d="M3512 2069 c-19 -7 -23 -15 -20 -41 3 -29 7 -33 35 -36 38 -4 60 25 44 57 -14 24 -31 30 -59 20z"
       id="path41" />
    <path
       d="M5322 2064 c-12 -8 -22 -24 -22 -34 0 -10 10 -26 22 -34 19 -13 25 -14 43 -2 11 7 20 24 20 36 0 12 -9 29 -20 36 -18 12 -24 11 -43 -2z"
       id="path42" />
    <path
       d="M4110 2051 c-17 -34 4 -63 43 -59 29 3 32 6 32 38 0 32 -3 35 -32 38 -24 2 -34 -2 -43 -17z"
       id="path43" />
    <path
       d="M4692 2058 c-28 -28 -6 -68 39 -68 30 0 45 26 34 60 -7 23 -53 28 -73 8z"
       id="path44" />
    <path
       d="M2610 2036 c-31 -38 9 -89 54 -68 45 20 30 82 -20 82 -12 0 -27 -7 -34 -14z"
       id="path45" />
    <path
       d="M3806 2034 c-20 -19 -20 -24 0 -52 18 -27 45 -28 67 -4 21 23 21 36 1 56 -20 20 -48 20 -68 0z"
       id="path46" />
    <path
       d="M5002 2038 c-36 -36 7 -91 54 -69 42 19 26 81 -21 81 -12 0 -26 -5 -33 -12z"
       id="path47" />
    <path
       d="M2260 1880 c-24 -24 -24 -30 -7 -54 9 -12 23 -17 42 -14 25 2 31 8 33 33 3 19 -2 33 -14 42 -24 17 -30 17 -54 -7z"
       id="path48" />
    <path
       d="M2976 1887 c-12 -9 -17 -23 -14 -42 3 -27 7 -30 38 -30 31 0 35 3 38 30 3 26 -17 55 -38 55 -3 0 -14 -6 -24 -13z"
       id="path49" />
    <path
       d="M3456 1881 c-22 -24 -18 -49 9 -67 18 -12 24 -11 43 2 26 18 28 46 6 68 -21 21 -37 20 -58 -3z"
       id="path50" />
    <path
       d="M4166 1884 c-30 -30 -13 -74 29 -74 42 0 59 44 29 74 -8 9 -22 16 -29 16 -7 0 -21 -7 -29 -16z"
       id="path51" />
    <path
       d="M4658 1889 c-27 -15 -24 -68 5 -78 12 -5 30 -5 40 1 24 12 23 64 -2 78 -23 12 -22 12 -43 -1z"
       id="path52" />
    <path
       d="M5366 1887 c-12 -9 -17 -23 -14 -42 2 -25 8 -31 33 -33 19 -3 33 2 42 14 17 24 17 30 -7 54 -24 24 -30 24 -54 7z"
       id="path53" />
    <path
       d="M2616 1854 c-30 -30 -13 -74 29 -74 43 0 59 44 27 73 -23 21 -36 21 -56 1z"
       id="path54" />
    <path
       d="M3822 1863 c-22 -9 -34 -41 -22 -63 23 -44 101 -12 84 35 -5 13 -36 37 -46 34 -2 0 -9 -3 -16 -6z"
       id="path55" />
    <path
       d="M5007 1852 c-30 -33 -15 -72 28 -72 42 0 59 44 29 74 -20 21 -37 20 -57 -2z"
       id="path56" />
  </g>
</svg>
